<svg width="64" height="46" viewBox="0 0 64 46" fill="none" xmlns="http://www.w3.org/2000/svg">
<path fill-rule="evenodd" clip-rule="evenodd" d="M9.282 0.169978C4.46109 1.15104 0.889619 4.86586 0.133437 9.68505C0.0111267 10.4651 -0.0216325 14.2247 0.0129865 23.4889C0.0646289 37.2795 0.0174208 36.4164 0.839264 38.6128C1.25569 39.7259 2.36307 41.3835 3.34842 42.3688C4.81401 43.8344 6.52479 44.7965 8.78131 45.4236C9.56582 45.6418 11.5646 45.6622 32.0275 45.6622C52.4905 45.6622 54.4892 45.6418 55.2737 45.4236C58.3581 44.5663 60.593 42.9781 62.218 40.4888C62.9272 39.4025 63.3398 38.4526 63.7614 36.9359C63.9762 36.163 64 34.7605 64 22.8451C64 10.9298 63.9762 9.52727 63.7614 8.75435C62.9041 5.66997 61.3159 3.43504 58.8266 1.81009C57.7829 1.12858 56.9095 0.741764 55.3474 0.268685C54.6266 0.0503854 52.6438 0.0276405 32.3852 0.00532411C14.4839 -0.0145604 10.0327 0.0171966 9.282 0.169978ZM54.2663 4.75328C56.7337 5.39602 58.6342 7.30264 59.2804 9.78333C59.5994 11.0082 59.5994 34.6821 59.2804 35.9069C58.6342 38.3876 56.7337 40.2943 54.2663 40.937C53.5295 41.129 50.7801 41.156 32.0275 41.156C13.2749 41.156 10.5256 41.129 9.7887 40.937C7.32131 40.2943 5.42084 38.3876 4.77467 35.9069C4.45566 34.6821 4.45566 11.0082 4.77467 9.78333C5.41254 7.33425 7.30915 5.41061 9.72718 4.76043C10.9225 4.43884 53.0338 4.43227 54.2663 4.75328ZM10.5696 9.26491C9.01478 9.91866 8.64455 11.9474 9.87639 13.0638C10.0609 13.2311 14.9433 15.9989 20.7263 19.2147C31.0397 24.9497 31.2557 25.0613 32.0275 25.0578C32.7943 25.0542 33.0752 24.9088 43.0426 19.3609C48.6682 16.2298 53.518 13.5072 53.82 13.3108C55.797 12.0251 54.7277 8.88639 52.4021 9.14846C51.9622 9.1981 49.3266 10.5993 42.1147 14.618C36.7819 17.5895 32.301 20.0516 32.1571 20.0892C31.9922 20.1323 28.2598 18.1358 22.0551 14.6854C11.6922 8.92272 11.5467 8.85406 10.5696 9.26491Z" fill="white"/>
</svg>
