<svg width="64" height="64" viewBox="0 0 64 64" fill="none" xmlns="http://www.w3.org/2000/svg">
<path fill-rule="evenodd" clip-rule="evenodd" d="M15.233 0.127562C13.1366 0.367976 10.682 1.18011 8.80524 2.25428C3.95417 5.03061 0.753238 9.88614 0.138449 15.4005C-0.0461498 17.0569 -0.0461498 46.9238 0.138449 48.5802C1.03457 56.6181 7.37969 62.9651 15.4152 63.8615C17.0711 64.0462 46.9289 64.0462 48.5848 63.8615C56.6203 62.9651 62.9654 56.6181 63.8615 48.5802C64.0461 46.9238 64.0461 17.0569 63.8615 15.4005C62.9654 7.36261 56.6203 1.01558 48.5848 0.119186C47.114 -0.0448405 16.6698 -0.0372143 15.233 0.127562ZM51.3723 8.51442C53.2479 9.07714 54.6792 10.7225 54.998 12.6825C55.3746 14.9967 53.9637 17.4072 51.7371 18.2535C49.8345 18.9766 47.5731 18.4588 46.1941 16.9842C43.3077 13.8974 45.104 8.90586 49.3101 8.32589C49.8058 8.2575 50.827 8.35089 51.3723 8.51442ZM49.56 12.0794C49.1588 12.1709 48.632 12.7474 48.5501 13.1846C48.3802 14.0904 49.2696 14.9801 50.1752 14.8102C50.7786 14.6969 51.2814 14.1095 51.2814 13.5176C51.2814 13.2519 51.2156 12.9114 51.1349 12.7609C50.8755 12.2759 50.1241 11.9507 49.56 12.0794ZM34.2984 14.6735C38.1648 15.1883 41.5089 16.8536 44.3226 19.6654C51.2008 26.5388 51.2008 37.4365 44.3226 44.3167C37.4442 51.1972 26.5558 51.1972 19.6773 44.3167C12.7992 37.4365 12.7992 26.5388 19.6773 19.6654C23.6107 15.7347 28.8451 13.9477 34.2984 14.6735ZM29.9252 18.4201C27.0167 18.8721 24.4111 20.1998 22.3121 22.2995C16.9331 27.6801 16.9331 36.3005 22.3121 41.6812C22.8654 42.2346 23.7961 43.0058 24.3804 43.3946C29.8648 47.0449 37.0355 46.335 41.6879 41.6812C47.0669 36.3005 47.0669 27.6801 41.6879 22.2995C38.5755 19.1861 34.2264 17.7518 29.9252 18.4201Z" fill="white"/>
</svg>
