<svg width="81" height="17" viewBox="0 0 81 17" fill="none" xmlns="http://www.w3.org/2000/svg">
<path d="M0.44 0.219999H3.24V16H0.44V0.219999ZM10.4236 16.24C9.35693 16.24 8.45026 16.04 7.70359 15.64C6.97026 15.24 6.41026 14.6867 6.02359 13.98C5.63693 13.2733 5.44359 12.46 5.44359 11.54C5.44359 10.66 5.67026 9.86667 6.12359 9.16C6.57693 8.45333 7.18359 7.89333 7.94359 7.48C8.70359 7.05333 9.55026 6.84 10.4836 6.84C11.7369 6.84 12.7636 7.20667 13.5636 7.94C14.3769 8.66 14.9036 9.70667 15.1436 11.08L8.34359 13.24L7.72359 11.72L12.6436 10.06L12.0636 10.32C11.9569 9.97333 11.7636 9.67333 11.4836 9.42C11.2169 9.15333 10.8103 9.02 10.2636 9.02C9.85026 9.02 9.48359 9.12 9.16359 9.32C8.85693 9.50667 8.61693 9.78 8.44359 10.14C8.28359 10.4867 8.20359 10.9 8.20359 11.38C8.20359 11.9267 8.30359 12.3867 8.50359 12.76C8.70359 13.12 8.97693 13.3933 9.32359 13.58C9.67026 13.7667 10.0569 13.86 10.4836 13.86C10.7903 13.86 11.0836 13.8067 11.3636 13.7C11.6569 13.5933 11.9436 13.4533 12.2236 13.28L13.4636 15.36C12.9969 15.6267 12.4903 15.84 11.9436 16C11.4103 16.16 10.9036 16.24 10.4236 16.24ZM28.6783 14.78C28.5183 14.9133 28.2183 15.0933 27.7783 15.32C27.3516 15.5467 26.8249 15.7467 26.1983 15.92C25.5716 16.0933 24.8783 16.1733 24.1183 16.16C22.9583 16.1333 21.9183 15.9267 20.9983 15.54C20.0916 15.14 19.3183 14.6 18.6783 13.92C18.0516 13.24 17.5716 12.46 17.2383 11.58C16.9049 10.7 16.7383 9.76 16.7383 8.76C16.7383 7.64 16.9049 6.61333 17.2383 5.68C17.5849 4.74667 18.0716 3.94 18.6983 3.26C19.3383 2.58 20.0983 2.05333 20.9783 1.68C21.8583 1.30667 22.8316 1.12 23.8983 1.12C24.8849 1.12 25.7583 1.25333 26.5183 1.52C27.2783 1.78667 27.8983 2.07333 28.3783 2.38L27.2383 5.12C26.9049 4.86667 26.4583 4.60667 25.8983 4.34C25.3516 4.06 24.7183 3.92 23.9983 3.92C23.4383 3.92 22.8983 4.04 22.3783 4.28C21.8716 4.50667 21.4183 4.83333 21.0183 5.26C20.6316 5.68667 20.3249 6.18667 20.0983 6.76C19.8716 7.32 19.7583 7.93333 19.7583 8.6C19.7583 9.30667 19.8583 9.95333 20.0583 10.54C20.2716 11.1267 20.5716 11.6333 20.9583 12.06C21.3449 12.4733 21.8049 12.7933 22.3383 13.02C22.8849 13.2467 23.4983 13.36 24.1783 13.36C24.9649 13.36 25.6383 13.2333 26.1983 12.98C26.7583 12.7267 27.1849 12.46 27.4783 12.18L28.6783 14.78ZM36.0436 1.28C36.9636 1.28 37.7836 1.4 38.5036 1.64C39.2236 1.86667 39.8236 2.2 40.3036 2.64C40.7969 3.06667 41.1703 3.58667 41.4236 4.2C41.6769 4.8 41.8036 5.48 41.8036 6.24C41.8036 6.84 41.7103 7.44 41.5236 8.04C41.3503 8.64 41.0569 9.18667 40.6436 9.68C40.2436 10.1733 39.7103 10.5733 39.0436 10.88C38.3769 11.1733 37.5503 11.32 36.5636 11.32H34.4836V16H31.5836V1.28H36.0436ZM36.5436 8.52C36.9836 8.52 37.3503 8.44667 37.6436 8.3C37.9369 8.15333 38.1636 7.96667 38.3236 7.74C38.4969 7.51333 38.6169 7.28 38.6836 7.04C38.7636 6.78667 38.8036 6.55333 38.8036 6.34C38.8036 6.18 38.7769 5.98 38.7236 5.74C38.6836 5.48667 38.5903 5.23333 38.4436 4.98C38.2969 4.72667 38.0703 4.51333 37.7636 4.34C37.4703 4.16667 37.0703 4.08 36.5636 4.08H34.4836V8.52H36.5436ZM39.2636 10.32L42.9036 16H39.5236L35.8036 10.4L39.2636 10.32ZM43.8867 8.66C43.8867 7.64667 44.0801 6.68667 44.4667 5.78C44.8534 4.87333 45.3867 4.07333 46.0667 3.38C46.7601 2.67333 47.5601 2.12 48.4667 1.72C49.3734 1.32 50.3467 1.12 51.3867 1.12C52.4134 1.12 53.3801 1.32 54.2867 1.72C55.1934 2.12 55.9934 2.67333 56.6867 3.38C57.3934 4.07333 57.9401 4.87333 58.3267 5.78C58.7267 6.68667 58.9267 7.64667 58.9267 8.66C58.9267 9.7 58.7267 10.6733 58.3267 11.58C57.9401 12.4867 57.3934 13.2867 56.6867 13.98C55.9934 14.66 55.1934 15.1933 54.2867 15.58C53.3801 15.9667 52.4134 16.16 51.3867 16.16C50.3467 16.16 49.3734 15.9667 48.4667 15.58C47.5601 15.1933 46.7601 14.66 46.0667 13.98C45.3867 13.2867 44.8534 12.4867 44.4667 11.58C44.0801 10.6733 43.8867 9.7 43.8867 8.66ZM46.8867 8.66C46.8867 9.31333 47.0001 9.92667 47.2267 10.5C47.4667 11.06 47.7934 11.56 48.2067 12C48.6334 12.4267 49.1201 12.76 49.6667 13C50.2267 13.24 50.8334 13.36 51.4867 13.36C52.1134 13.36 52.6934 13.24 53.2267 13C53.7734 12.76 54.2467 12.4267 54.6467 12C55.0467 11.56 55.3601 11.06 55.5867 10.5C55.8134 9.92667 55.9267 9.31333 55.9267 8.66C55.9267 7.99333 55.8067 7.37333 55.5667 6.8C55.3401 6.22667 55.0201 5.72667 54.6067 5.3C54.2067 4.86 53.7334 4.52 53.1867 4.28C52.6401 4.04 52.0467 3.92 51.4067 3.92C50.7667 3.92 50.1734 4.04 49.6267 4.28C49.0801 4.52 48.6001 4.86 48.1867 5.3C47.7734 5.72667 47.4534 6.22667 47.2267 6.8C47.0001 7.37333 46.8867 7.99333 46.8867 8.66ZM74.998 16.6L63.838 6.52L64.698 7L64.758 16H61.818V0.699999H61.938L72.858 10.74L72.218 10.46L72.158 1.28H75.078V16.6H74.998ZM77.2688 14.56C77.2688 14.1467 77.4154 13.8 77.7088 13.52C78.0154 13.24 78.3488 13.1 78.7088 13.1C79.0421 13.1 79.3554 13.24 79.6488 13.52C79.9554 13.8 80.1088 14.1467 80.1088 14.56C80.1088 15 79.9554 15.3533 79.6488 15.62C79.3554 15.8733 79.0421 16 78.7088 16C78.3488 16 78.0154 15.8733 77.7088 15.62C77.4154 15.3533 77.2688 15 77.2688 14.56Z" fill="#B388FF"/>
</svg>
